<?xml version="1.0" encoding="UTF-8"?><svg id="Layer_1" xmlns="http://www.w3.org/2000/svg" viewBox="0 0 40.57 35.17"><defs><style>.cls-1{fill:#e29477;}.cls-2{fill:#e73d1e;}</style></defs><path class="cls-2" d="M40.47,9.36l-.07-.11-2.53-2.64c-.15-.22-.05-.55,.22-.63,.38-.12,.75-.32,1.06-.62,1.06-1.01,1.1-2.66,.09-3.67-.96-1.05-2.62-1.08-3.67-.07-.31,.3-.53,.65-.67,1.03-.1,.27-.43,.35-.64,.19L31.74,.19l-.11-.08c-.16-.15-.41-.15-.58,0l-2.93,2.81c-.18,.01-.36-.09-.42-.28-.25-.86-.96-1.6-2.18-1.84-.12-.02-.26-.03-.38,0-2.48,.44-3.12,3.02-1.79,4.42,.28,.3,.62,.51,.99,.63,.2,.07,.28,.27,.25,.45l-2.94,2.82c-.17,.16-.18,.43-.02,.59l2.66,2.77,.05,.04,.02,.02c.23,.24,.62,.11,.7-.21,.24-.94,1.02-1.77,2.31-2.03,.24-.02,.49,0,.72,.05,.54,.15,.98,.41,1.3,.74,.31,.34,.55,.78,.68,1.33,.04,.24,.05,.48,.02,.72-.31,1.28-1.18,2.02-2.13,2.22-.33,.07-.47,.46-.24,.69l.02,.02,.03,.05,2.65,2.78c.16,.17,.42,.17,.59,0l2.95-2.81c.19-.03,.39,.07,.44,.27,.11,.37,.3,.72,.59,1.02,1.34,1.4,3.95,.87,4.5-1.59,.03-.13,.03-.26,.01-.38-.18-1.22-.89-1.97-1.74-2.26-.19-.06-.29-.25-.26-.43l2.93-2.8c.17-.16,.18-.41,.03-.58Z"/><path class="cls-1" d="M27.02,35.15h.08l3.84,.03c.23,0,.41-.19,.42-.42l.02-4.08c.11-.15,.32-.23,.5-.13,.34,.18,.73,.28,1.14,.28,1.94,0,3.36-2.24,1.97-4.34-.07-.11-.16-.2-.27-.27-1.01-.72-2.04-.72-2.83-.31-.18,.09-.38,.03-.49-.11l.02-4.05c0-.23-.17-.41-.39-.42l-.13-.03h-3.66c-.26-.05-.43-.35-.3-.6,.18-.36,.29-.76,.29-1.2,0-1.46-1.16-2.64-2.58-2.61-1.43-.04-2.59,1.14-2.59,2.6,0,.43,.1,.84,.28,1.2,.13,.25-.04,.55-.31,.6l-3.66-.02-.13,.02c-.16,0-.29,.11-.35,.24,.02,.06,.04,.13,.04,.2v4.19l-.24-.05c-.1,.05-.22,.05-.34,0l-.07-.03c-.12,0-.25,.01-.38,.03h-.07c-.14-.03-.27-.05-.4-.05-1.17,0-2.14,.91-2.29,2.08-.01,.1-.02,.2-.02,.31,0,.42,.11,.87,.36,1.33,.05,.1,.1,.2,.17,.3,.06,.08,.13,.16,.21,.22,.54,.38,1.07,.53,1.56,.54,.13,0,.26-.01,.39-.03h.07c.11,.02,.19,.03,.27,.04,.06-.03,.13-.05,.19-.09,.13-.07,.28-.05,.39,.03l.18-.04v4.25c0,.05-.02,.11-.03,.16,.07,.14,.2,.24,.37,.24h3.93c.33,0,.51-.38,.33-.66-.51-.82-.57-1.96,.14-3.07,.15-.19,.33-.35,.53-.49,.48-.29,.97-.42,1.43-.43,.46,0,.94,.14,1.43,.43,.2,.14,.38,.3,.53,.49,.71,1.11,.63,2.25,.12,3.07-.18,.28,0,.66,.33,.66Z"/><path class="cls-1" d="M13.42,20.75v.02h-.01l-.02,.1c0,.09,.07,.19,.17,.21h3.63c.05,0,.1,0,.14,.02h0c.13,0,.24,.05,.34,.12l.02-.11,.02-4.08c.11-.15,.32-.23,.5-.13,.34,.18,.73,.28,1.14,.28,1.94,0,3.36-2.24,1.97-4.34-.07-.11-.16-.2-.27-.27-1.01-.72-2.04-.72-2.83-.31-.18,.09-.38,.03-.49-.11l.02-4.05c0-.23-.17-.41-.39-.42l-.13-.03h-3.66c-.26-.05-.43-.35-.3-.6,.18-.36,.29-.76,.29-1.2,0-1.46-1.16-2.64-2.58-2.61-1.42-.04-2.59,1.14-2.59,2.6,0,.43,.1,.84,.28,1.2,.13,.25-.04,.55-.31,.6l-3.66-.02-.13,.02c-.22,0-.4,.19-.4,.42v4.05c-.12,.14-.32,.2-.49,.1-.79-.42-1.82-.41-2.83,.3-.1,.07-.2,.17-.27,.27-1.41,2.09,.01,4.34,1.95,4.35,.41,0,.8-.1,1.14-.28,.19-.1,.39-.02,.5,.14v4.08c0,.05,0,.1,.02,.14,.1-.07,.21-.11,.34-.12h0s.09-.02,.14-.02h3.63c.09-.01,.17-.11,.17-.2l-.02-.09h0v-.02h0c-.18-.39-.29-.81-.29-1.26h0v-.02c0-.28,.05-.55,.12-.79,.33-1.16,1.37-2.01,2.61-2.01h.12c1.24,0,2.28,.86,2.61,2.01,.07,.25,.12,.51,.12,.79h0c0,.46-.11,.89-.3,1.27Z"/><path class="cls-1" d="M14.68,26.03c.48-.43,1.1-.69,1.79-.69v0c.17,0,.31,.03,.45,.05,.14-.02,.28-.03,.41-.03,.07,0,.14,0,.2,0v-3.69c0-.12-.08-.2-.18-.21h-.05l-.03-.02h-3.75c-.29-.06-.49-.3-.51-.57v-.06c-.01-.09,.01-.18,.05-.26h0v-.02h.01c.16-.34,.26-.7,.26-1.1h0c0-.24-.04-.46-.11-.68-.29-.99-1.16-1.71-2.21-1.71h-.12c-.49,0-.94,.16-1.32,.44-.42,.31-.74,.75-.89,1.28-.04,.13-.06,.25-.08,.38-.01,.1-.03,.19-.03,.29h0c0,.4,.09,.77,.26,1.1h0v.02h0c.04,.1,.06,.19,.06,.27v.05c-.03,.28-.23,.52-.52,.57h-3.75l-.03,.02h-.03c-.1,0-.19,.09-.19,.22v4.13l-.04,.06c-.12,.14-.28,.23-.47,.23-.09,0-.19-.02-.28-.07-.31-.16-.66-.25-1.04-.25-.49,0-1.03,.16-1.58,.55-.08,.06-.16,.13-.21,.22-.37,.56-.53,1.11-.53,1.63,0,1.32,1.04,2.39,2.31,2.39h0c.37,0,.73-.09,1.04-.25,.09-.04,.18-.07,.27-.07,.21,0,.39,.11,.5,.26l.04,.06v4.15c0,.12,.1,.22,.21,.22h3.83l.06-.02h.04c.06,0,.1-.02,.14-.06,.03-.04,.05-.09,.05-.15l-.04-.13c-.27-.43-.42-.95-.42-1.5,0-.58,.17-1.2,.56-1.8h0v-.02c.17-.2,.37-.38,.59-.53h0c.51-.32,1.04-.46,1.54-.47h0c.5,0,1.02,.15,1.53,.46h.01c.22,.15,.41,.33,.58,.54h0v.02c.39,.6,.56,1.22,.56,1.8,0,.55-.15,1.07-.42,1.5l-.04,.13c0,.06,.02,.11,.06,.15,.03,.04,.07,.06,.14,.06h.1l3.83,.02c.11,0,.2-.09,.2-.22v-3.74c-.08,.01-.17,.02-.26,.02h0c-.16,0-.28-.04-.39-.05-.13,.02-.27,.03-.41,.03-.56,0-1.16-.18-1.74-.57l-.07-.04c-.12-.09-.23-.2-.32-.33-.22-.33-.37-.66-.47-.99-.03-.1-.05-.21-.07-.31-.04-.19-.06-.38-.06-.56,0-.85,.37-1.61,.94-2.12Z"/></svg>